<?xml version="1.0" encoding="UTF-8" standalone="no"?>
<svg
   viewBox="0 0 512 512"
   version="1.1"
   id="svg1"
   sodipodi:docname="cloud-showers-heavy-solid.svg"
   xml:space="preserve"
   inkscape:export-filename="rain-and-thunder-solid.svg"
   inkscape:export-xdpi="96"
   inkscape:export-ydpi="96"
   inkscape:version="1.4 (e7c3feb100, 2024-10-09)"
   xmlns:inkscape="http://www.inkscape.org/namespaces/inkscape"
   xmlns:sodipodi="http://sodipodi.sourceforge.net/DTD/sodipodi-0.dtd"
   xmlns="http://www.w3.org/2000/svg"
   xmlns:svg="http://www.w3.org/2000/svg"><defs
     id="defs1" /><sodipodi:namedview
     id="namedview1"
     pagecolor="#505050"
     bordercolor="#eeeeee"
     borderopacity="1"
     inkscape:showpageshadow="0"
     inkscape:pageopacity="0"
     inkscape:pagecheckerboard="0"
     inkscape:deskcolor="#505050"
     inkscape:zoom="0.86731066"
     inkscape:cx="349.35579"
     inkscape:cy="210.99706"
     inkscape:window-width="1600"
     inkscape:window-height="833"
     inkscape:window-x="0"
     inkscape:window-y="0"
     inkscape:window-maximized="1"
     inkscape:current-layer="svg1" /><!--!Font Awesome Free 6.7.2 by @fontawesome - https://fontawesome.com License - https://fontawesome.com/license/free Copyright 2025 Fonticons, Inc.--><path
     id="path1-2"
     d="m -6.3749982e-8,224.0312 c 0,53 42.999999063749982,96 95.999999063749982,96 H 143.2 l 146.8,-117.5 c 17.6,-14.1 42.6,-14 60.2,0.2 17.6,14.2 22.8,38.6 12.8,58.8 l -29.3,58.5 h 18.3 64 c 53,0 96,-43 96,-96 0,-53 -43,-96 -96,-96 -0.5,0 -1.1,0 -1.6,0 1.1,-5.2 1.6,-10.5 1.6,-16 0,-44.200001 -35.8,-80.000001 -80,-80.000001 -24.3,0 -46.1,10.9 -60.8,28 -18.7,-35.7 -56.1,-60.00000056 -99.2,-60.00000056 -61.9,0 -112.000001,50.10000056 -112.000001,112.00000156 0,7.1 0.7,14.1 1.9,20.8 -38.3,12.6 -65.899999063749859,48.7 -65.899999063749973,91.2 z M 330.1,227.6312 c -5.8,-4.7 -14.2,-4.7 -20.1,-0.1 l -160,128 c -5.3,4.2 -7.4,11.4 -5.1,17.8 2.3,6.4 8.3,10.7 15.1,10.7 h 70.1 l -52.4,104.8 c -3.4,6.7 -1.6,14.9 4.3,19.6 5.9,4.7 14.2,4.7 20.1,0.1 l 160,-128 c 5.3,-4.2 7.4,-11.4 5.1,-17.8 -2.3,-6.4 -8.3,-10.7 -15.1,-10.7 H 282 l 52.4,-104.8 c 3.4,-6.7 1.6,-14.9 -4.2,-19.6 z m 83.15732,116.72192 c 1.3,-2.5 3.9,-4 6.8,-4 2.9,0 5.4,1.5 6.8,4 l 35.10001,64.6 c 4.1,7.5 6.2,15.8 6.2,24.3 v 3 c 0,26.5 -21.5,48 -48.00001,48 -26.5,0 -48,-21.5 -48,-48 v -3 c 0,-8.5 2.1,-16.9 6.2,-24.3 z m -369.775162,65.20899 35.1,-64.6 c 1.3,-2.5 3.9,-4 6.8,-4 2.9,0 5.4,1.5 6.8,4 l 35.100002,64.6 c 4.1,7.5 6.2,15.8 6.2,24.3 v 3 c 0,26.5 -21.5,48 -48.000002,48 -26.5,0 -48,-21.5 -48,-48 v -3 c 0,-8.5 2.1,-16.9 6.2,-24.3 z" /></svg>
